<mxfile host="app.diagrams.net" modified="2023-10-30T12:28:48.825Z" agent="Mozilla/5.0 (Windows NT 10.0; Win64; x64) AppleWebKit/537.36 (KHTML, like Gecko) Chrome/118.0.0.0 Safari/537.36" etag="H882HoJQOEc8xoNB2GY2" version="22.0.8" type="google">
  <diagram id="R2lEEEUBdFMjLlhIrx00" name="Page-1">
    <mxGraphModel dx="2607" dy="1433" grid="1" gridSize="10" guides="1" tooltips="1" connect="1" arrows="1" fold="1" page="1" pageScale="1" pageWidth="850" pageHeight="1100" math="0" shadow="0" extFonts="Permanent Marker^https://fonts.googleapis.com/css?family=Permanent+Marker">
      <root>
        <mxCell id="0" />
        <mxCell id="1" parent="0" />
        <mxCell id="-f9kYf8_g8l748EG_-C_-7" value="" style="edgeStyle=orthogonalEdgeStyle;rounded=0;orthogonalLoop=1;jettySize=auto;html=1;strokeColor=default;endArrow=none;endFill=0;" parent="1" source="-f9kYf8_g8l748EG_-C_-5" target="-f9kYf8_g8l748EG_-C_-6" edge="1">
          <mxGeometry relative="1" as="geometry" />
        </mxCell>
        <mxCell id="0RVPQtY0PKBF0CtTsRn5-5" value="1, 1" style="edgeLabel;html=1;align=center;verticalAlign=middle;resizable=0;points=[];" vertex="1" connectable="0" parent="-f9kYf8_g8l748EG_-C_-7">
          <mxGeometry x="-0.5167" relative="1" as="geometry">
            <mxPoint as="offset" />
          </mxGeometry>
        </mxCell>
        <mxCell id="-f9kYf8_g8l748EG_-C_-5" value="Workflow" style="rounded=0;whiteSpace=wrap;html=1;strokeWidth=2;strokeColor=#3396dd;fontFamily=Verdana;fontSize=17;fontStyle=0;fontColor=#4D4D4D;" parent="1" vertex="1">
          <mxGeometry x="545" y="320" width="120" height="60" as="geometry" />
        </mxCell>
        <mxCell id="-f9kYf8_g8l748EG_-C_-9" value="" style="edgeStyle=orthogonalEdgeStyle;shape=connector;rounded=0;orthogonalLoop=1;jettySize=auto;html=1;labelBackgroundColor=default;strokeColor=default;align=center;verticalAlign=middle;fontFamily=Helvetica;fontSize=11;fontColor=default;endArrow=none;endFill=0;" parent="1" source="-f9kYf8_g8l748EG_-C_-6" target="-f9kYf8_g8l748EG_-C_-8" edge="1">
          <mxGeometry relative="1" as="geometry" />
        </mxCell>
        <mxCell id="0RVPQtY0PKBF0CtTsRn5-7" value="0, n" style="edgeLabel;html=1;align=center;verticalAlign=middle;resizable=0;points=[];" vertex="1" connectable="0" parent="-f9kYf8_g8l748EG_-C_-9">
          <mxGeometry x="0.5542" y="-1" relative="1" as="geometry">
            <mxPoint as="offset" />
          </mxGeometry>
        </mxCell>
        <mxCell id="-f9kYf8_g8l748EG_-C_-6" value="Contiene" style="rhombus;whiteSpace=wrap;html=1;strokeWidth=2;strokeColor=#24afaf;fontFamily=Verdana;fontSize=17;fontColor=#4B4B4B;" parent="1" vertex="1">
          <mxGeometry x="545" y="420" width="120" height="60" as="geometry" />
        </mxCell>
        <mxCell id="-f9kYf8_g8l748EG_-C_-15" value="" style="edgeStyle=orthogonalEdgeStyle;shape=connector;rounded=0;orthogonalLoop=1;jettySize=auto;html=1;labelBackgroundColor=default;strokeColor=default;align=center;verticalAlign=middle;fontFamily=Helvetica;fontSize=11;fontColor=default;endArrow=none;endFill=0;" parent="1" source="-f9kYf8_g8l748EG_-C_-8" target="-f9kYf8_g8l748EG_-C_-14" edge="1">
          <mxGeometry relative="1" as="geometry" />
        </mxCell>
        <mxCell id="0RVPQtY0PKBF0CtTsRn5-23" value="0, n" style="edgeLabel;html=1;align=center;verticalAlign=middle;resizable=0;points=[];" vertex="1" connectable="0" parent="-f9kYf8_g8l748EG_-C_-15">
          <mxGeometry x="-0.796" y="1" relative="1" as="geometry">
            <mxPoint as="offset" />
          </mxGeometry>
        </mxCell>
        <mxCell id="-f9kYf8_g8l748EG_-C_-23" value="" style="edgeStyle=orthogonalEdgeStyle;shape=connector;rounded=0;orthogonalLoop=1;jettySize=auto;html=1;labelBackgroundColor=default;strokeColor=default;align=center;verticalAlign=middle;fontFamily=Helvetica;fontSize=11;fontColor=default;endArrow=none;endFill=0;entryX=0;entryY=0.5;entryDx=0;entryDy=0;exitX=1;exitY=0.25;exitDx=0;exitDy=0;" parent="1" source="-f9kYf8_g8l748EG_-C_-8" target="-f9kYf8_g8l748EG_-C_-22" edge="1">
          <mxGeometry relative="1" as="geometry" />
        </mxCell>
        <mxCell id="0RVPQtY0PKBF0CtTsRn5-8" value="0, n" style="edgeLabel;html=1;align=center;verticalAlign=middle;resizable=0;points=[];" vertex="1" connectable="0" parent="-f9kYf8_g8l748EG_-C_-23">
          <mxGeometry x="-0.7167" y="-2" relative="1" as="geometry">
            <mxPoint as="offset" />
          </mxGeometry>
        </mxCell>
        <mxCell id="-f9kYf8_g8l748EG_-C_-31" style="edgeStyle=orthogonalEdgeStyle;shape=connector;rounded=0;orthogonalLoop=1;jettySize=auto;html=1;labelBackgroundColor=default;strokeColor=default;align=center;verticalAlign=middle;fontFamily=Helvetica;fontSize=11;fontColor=default;endArrow=none;endFill=0;" parent="1" source="-f9kYf8_g8l748EG_-C_-8" target="-f9kYf8_g8l748EG_-C_-30" edge="1">
          <mxGeometry relative="1" as="geometry">
            <Array as="points">
              <mxPoint x="570" y="540" />
              <mxPoint x="480" y="540" />
            </Array>
          </mxGeometry>
        </mxCell>
        <mxCell id="-f9kYf8_g8l748EG_-C_-37" style="edgeStyle=orthogonalEdgeStyle;shape=connector;rounded=0;orthogonalLoop=1;jettySize=auto;html=1;entryX=0.5;entryY=0;entryDx=0;entryDy=0;labelBackgroundColor=default;strokeColor=default;align=center;verticalAlign=middle;fontFamily=Helvetica;fontSize=11;fontColor=default;endArrow=none;endFill=0;exitX=1;exitY=0.75;exitDx=0;exitDy=0;" parent="1" source="-f9kYf8_g8l748EG_-C_-8" target="-f9kYf8_g8l748EG_-C_-36" edge="1">
          <mxGeometry relative="1" as="geometry">
            <Array as="points">
              <mxPoint x="750" y="605" />
            </Array>
          </mxGeometry>
        </mxCell>
        <mxCell id="0RVPQtY0PKBF0CtTsRn5-19" value="1, 1" style="edgeLabel;html=1;align=center;verticalAlign=middle;resizable=0;points=[];" vertex="1" connectable="0" parent="-f9kYf8_g8l748EG_-C_-37">
          <mxGeometry x="-0.7733" y="1" relative="1" as="geometry">
            <mxPoint as="offset" />
          </mxGeometry>
        </mxCell>
        <mxCell id="-f9kYf8_g8l748EG_-C_-43" style="edgeStyle=orthogonalEdgeStyle;shape=connector;rounded=0;orthogonalLoop=1;jettySize=auto;html=1;entryX=0.5;entryY=0;entryDx=0;entryDy=0;labelBackgroundColor=default;strokeColor=default;align=center;verticalAlign=middle;fontFamily=Helvetica;fontSize=11;fontColor=default;endArrow=none;endFill=0;exitX=0.25;exitY=1;exitDx=0;exitDy=0;" parent="1" source="-f9kYf8_g8l748EG_-C_-8" target="-f9kYf8_g8l748EG_-C_-42" edge="1">
          <mxGeometry relative="1" as="geometry">
            <Array as="points">
              <mxPoint x="575" y="670" />
              <mxPoint x="460" y="670" />
            </Array>
          </mxGeometry>
        </mxCell>
        <mxCell id="0RVPQtY0PKBF0CtTsRn5-29" value="1, 1" style="edgeLabel;html=1;align=center;verticalAlign=middle;resizable=0;points=[];" vertex="1" connectable="0" parent="-f9kYf8_g8l748EG_-C_-43">
          <mxGeometry x="-0.8367" y="4" relative="1" as="geometry">
            <mxPoint as="offset" />
          </mxGeometry>
        </mxCell>
        <mxCell id="Grk35q4gSgS68jNmNNRj-3" style="rounded=0;orthogonalLoop=1;jettySize=auto;html=1;entryX=1;entryY=0.5;entryDx=0;entryDy=0;endArrow=none;endFill=0;exitX=0;exitY=0.25;exitDx=0;exitDy=0;edgeStyle=orthogonalEdgeStyle;" parent="1" source="-f9kYf8_g8l748EG_-C_-8" target="Grk35q4gSgS68jNmNNRj-1" edge="1">
          <mxGeometry relative="1" as="geometry">
            <mxPoint x="540" y="580" as="sourcePoint" />
          </mxGeometry>
        </mxCell>
        <mxCell id="0RVPQtY0PKBF0CtTsRn5-35" value="0, n" style="edgeLabel;html=1;align=center;verticalAlign=middle;resizable=0;points=[];" vertex="1" connectable="0" parent="Grk35q4gSgS68jNmNNRj-3">
          <mxGeometry x="-0.8883" relative="1" as="geometry">
            <mxPoint x="-1" as="offset" />
          </mxGeometry>
        </mxCell>
        <mxCell id="Grk35q4gSgS68jNmNNRj-7" style="rounded=0;orthogonalLoop=1;jettySize=auto;html=1;entryX=0.5;entryY=0;entryDx=0;entryDy=0;endArrow=none;endFill=0;exitX=0;exitY=0.75;exitDx=0;exitDy=0;edgeStyle=orthogonalEdgeStyle;" parent="1" source="-f9kYf8_g8l748EG_-C_-8" target="Grk35q4gSgS68jNmNNRj-6" edge="1">
          <mxGeometry relative="1" as="geometry">
            <mxPoint x="540" y="600" as="sourcePoint" />
          </mxGeometry>
        </mxCell>
        <mxCell id="0RVPQtY0PKBF0CtTsRn5-33" value="1, 1" style="edgeLabel;html=1;align=center;verticalAlign=middle;resizable=0;points=[];" vertex="1" connectable="0" parent="Grk35q4gSgS68jNmNNRj-7">
          <mxGeometry x="-0.8682" y="-2" relative="1" as="geometry">
            <mxPoint x="-1" y="-1" as="offset" />
          </mxGeometry>
        </mxCell>
        <mxCell id="-f9kYf8_g8l748EG_-C_-8" value="Ordine" style="rounded=0;whiteSpace=wrap;html=1;strokeWidth=2;strokeColor=#3396dd;fontFamily=Verdana;fontSize=17;fontStyle=0;fontColor=#4D4D4D;" parent="1" vertex="1">
          <mxGeometry x="545" y="560" width="120" height="60" as="geometry" />
        </mxCell>
        <mxCell id="-f9kYf8_g8l748EG_-C_-24" value="" style="edgeStyle=orthogonalEdgeStyle;shape=connector;rounded=0;orthogonalLoop=1;jettySize=auto;html=1;labelBackgroundColor=default;strokeColor=default;align=center;verticalAlign=middle;fontFamily=Helvetica;fontSize=11;fontColor=default;endArrow=none;endFill=0;" parent="1" source="-f9kYf8_g8l748EG_-C_-10" target="-f9kYf8_g8l748EG_-C_-22" edge="1">
          <mxGeometry relative="1" as="geometry" />
        </mxCell>
        <mxCell id="0RVPQtY0PKBF0CtTsRn5-9" value="1, 1" style="edgeLabel;html=1;align=center;verticalAlign=middle;resizable=0;points=[];" vertex="1" connectable="0" parent="-f9kYf8_g8l748EG_-C_-24">
          <mxGeometry x="-0.1467" y="1" relative="1" as="geometry">
            <mxPoint x="-1" y="-7" as="offset" />
          </mxGeometry>
        </mxCell>
        <mxCell id="-f9kYf8_g8l748EG_-C_-35" value="" style="edgeStyle=orthogonalEdgeStyle;shape=connector;rounded=0;orthogonalLoop=1;jettySize=auto;html=1;labelBackgroundColor=default;strokeColor=default;align=center;verticalAlign=middle;fontFamily=Helvetica;fontSize=11;fontColor=default;endArrow=none;endFill=0;" parent="1" source="-f9kYf8_g8l748EG_-C_-10" target="-f9kYf8_g8l748EG_-C_-34" edge="1">
          <mxGeometry relative="1" as="geometry" />
        </mxCell>
        <mxCell id="-f9kYf8_g8l748EG_-C_-10" value="Cliente" style="rounded=0;whiteSpace=wrap;html=1;strokeWidth=2;strokeColor=#3396dd;fontFamily=Verdana;fontSize=17;fontColor=#4B4B4B;" parent="1" vertex="1">
          <mxGeometry x="720" y="390" width="120" height="60" as="geometry" />
        </mxCell>
        <mxCell id="-f9kYf8_g8l748EG_-C_-16" value="" style="edgeStyle=orthogonalEdgeStyle;shape=connector;rounded=0;orthogonalLoop=1;jettySize=auto;html=1;labelBackgroundColor=default;strokeColor=default;align=center;verticalAlign=middle;fontFamily=Helvetica;fontSize=11;fontColor=default;endArrow=none;endFill=0;" parent="1" source="-f9kYf8_g8l748EG_-C_-11" target="-f9kYf8_g8l748EG_-C_-14" edge="1">
          <mxGeometry relative="1" as="geometry" />
        </mxCell>
        <mxCell id="0RVPQtY0PKBF0CtTsRn5-24" value="1, 1" style="edgeLabel;html=1;align=center;verticalAlign=middle;resizable=0;points=[];" vertex="1" connectable="0" parent="-f9kYf8_g8l748EG_-C_-16">
          <mxGeometry x="-0.5565" y="2" relative="1" as="geometry">
            <mxPoint as="offset" />
          </mxGeometry>
        </mxCell>
        <mxCell id="-f9kYf8_g8l748EG_-C_-33" value="" style="edgeStyle=orthogonalEdgeStyle;shape=connector;rounded=0;orthogonalLoop=1;jettySize=auto;html=1;labelBackgroundColor=default;strokeColor=default;align=center;verticalAlign=middle;fontFamily=Helvetica;fontSize=11;fontColor=default;endArrow=none;endFill=0;exitX=0.5;exitY=1;exitDx=0;exitDy=0;" parent="1" source="-f9kYf8_g8l748EG_-C_-11" target="-f9kYf8_g8l748EG_-C_-32" edge="1">
          <mxGeometry relative="1" as="geometry" />
        </mxCell>
        <mxCell id="-f9kYf8_g8l748EG_-C_-11" value="Veicolo" style="rounded=0;whiteSpace=wrap;html=1;strokeWidth=2;strokeColor=#3396dd;fontFamily=Verdana;fontSize=17;fontColor=#4B4B4B;" parent="1" vertex="1">
          <mxGeometry x="545" y="860" width="120" height="60" as="geometry" />
        </mxCell>
        <mxCell id="XMlzGlEQkST-gz8FGXZO-26" style="edgeStyle=orthogonalEdgeStyle;shape=connector;rounded=0;orthogonalLoop=1;jettySize=auto;html=1;exitX=0.5;exitY=1;exitDx=0;exitDy=0;entryX=0.5;entryY=0;entryDx=0;entryDy=0;labelBackgroundColor=default;strokeColor=default;align=center;verticalAlign=middle;fontFamily=Helvetica;fontSize=11;fontColor=default;endArrow=none;endFill=0;" parent="1" source="-f9kYf8_g8l748EG_-C_-12" target="XMlzGlEQkST-gz8FGXZO-25" edge="1">
          <mxGeometry relative="1" as="geometry">
            <Array as="points">
              <mxPoint x="180" y="620" />
              <mxPoint x="135" y="620" />
            </Array>
          </mxGeometry>
        </mxCell>
        <mxCell id="0RVPQtY0PKBF0CtTsRn5-37" value="1, 1" style="edgeLabel;html=1;align=center;verticalAlign=middle;resizable=0;points=[];" vertex="1" connectable="0" parent="XMlzGlEQkST-gz8FGXZO-26">
          <mxGeometry x="-0.7083" y="-1" relative="1" as="geometry">
            <mxPoint x="1" as="offset" />
          </mxGeometry>
        </mxCell>
        <mxCell id="Grk35q4gSgS68jNmNNRj-2" style="rounded=0;orthogonalLoop=1;jettySize=auto;html=1;entryX=0;entryY=0.5;entryDx=0;entryDy=0;endArrow=none;endFill=0;exitX=1;exitY=0.5;exitDx=0;exitDy=0;" parent="1" source="-f9kYf8_g8l748EG_-C_-12" target="Grk35q4gSgS68jNmNNRj-1" edge="1">
          <mxGeometry relative="1" as="geometry" />
        </mxCell>
        <mxCell id="0RVPQtY0PKBF0CtTsRn5-34" value="1, 1" style="edgeLabel;html=1;align=center;verticalAlign=middle;resizable=0;points=[];" vertex="1" connectable="0" parent="Grk35q4gSgS68jNmNNRj-2">
          <mxGeometry x="-0.4625" y="1" relative="1" as="geometry">
            <mxPoint x="-1" as="offset" />
          </mxGeometry>
        </mxCell>
        <mxCell id="-f9kYf8_g8l748EG_-C_-12" value="Dipendente" style="rounded=0;whiteSpace=wrap;html=1;strokeWidth=2;strokeColor=#3396dd;fontFamily=Verdana;fontSize=17;fontColor=#4B4B4B;" parent="1" vertex="1">
          <mxGeometry x="120" y="500" width="120" height="60" as="geometry" />
        </mxCell>
        <mxCell id="-f9kYf8_g8l748EG_-C_-40" style="edgeStyle=orthogonalEdgeStyle;shape=connector;rounded=0;orthogonalLoop=1;jettySize=auto;html=1;labelBackgroundColor=default;strokeColor=default;align=center;verticalAlign=middle;fontFamily=Helvetica;fontSize=11;fontColor=default;endArrow=none;endFill=0;exitX=0.5;exitY=0;exitDx=0;exitDy=0;" parent="1" source="-f9kYf8_g8l748EG_-C_-13" target="-f9kYf8_g8l748EG_-C_-39" edge="1">
          <mxGeometry relative="1" as="geometry" />
        </mxCell>
        <mxCell id="-f9kYf8_g8l748EG_-C_-13" value="NotaJob" style="rounded=0;whiteSpace=wrap;html=1;strokeWidth=2;strokeColor=#3396dd;fontFamily=Verdana;fontSize=17;fontColor=#4B4B4B;" parent="1" vertex="1">
          <mxGeometry x="690" y="930" width="120" height="60" as="geometry" />
        </mxCell>
        <mxCell id="-f9kYf8_g8l748EG_-C_-14" value="Opera su" style="rhombus;whiteSpace=wrap;html=1;strokeWidth=2;strokeColor=#24afaf;fontFamily=Verdana;fontSize=17;fontColor=#4B4B4B;" parent="1" vertex="1">
          <mxGeometry x="545" y="750" width="120" height="60" as="geometry" />
        </mxCell>
        <mxCell id="-f9kYf8_g8l748EG_-C_-22" value="Effettua" style="rhombus;whiteSpace=wrap;html=1;strokeWidth=2;strokeColor=#24afaf;fontFamily=Verdana;fontSize=17;fontColor=#4B4B4B;" parent="1" vertex="1">
          <mxGeometry x="720" y="500" width="120" height="60" as="geometry" />
        </mxCell>
        <mxCell id="-f9kYf8_g8l748EG_-C_-27" value="" style="edgeStyle=orthogonalEdgeStyle;shape=connector;rounded=0;orthogonalLoop=1;jettySize=auto;html=1;labelBackgroundColor=default;strokeColor=default;align=center;verticalAlign=middle;fontFamily=Helvetica;fontSize=11;fontColor=default;endArrow=none;endFill=0;" parent="1" source="-f9kYf8_g8l748EG_-C_-25" target="-f9kYf8_g8l748EG_-C_-26" edge="1">
          <mxGeometry relative="1" as="geometry" />
        </mxCell>
        <mxCell id="0RVPQtY0PKBF0CtTsRn5-2" value="1, 1" style="edgeLabel;html=1;align=center;verticalAlign=middle;resizable=0;points=[];" vertex="1" connectable="0" parent="-f9kYf8_g8l748EG_-C_-27">
          <mxGeometry x="-0.5683" y="-1" relative="1" as="geometry">
            <mxPoint as="offset" />
          </mxGeometry>
        </mxCell>
        <mxCell id="0RVPQtY0PKBF0CtTsRn5-69" style="edgeStyle=orthogonalEdgeStyle;rounded=0;orthogonalLoop=1;jettySize=auto;html=1;exitX=0.5;exitY=0;exitDx=0;exitDy=0;endArrow=none;endFill=0;" edge="1" parent="1" source="-f9kYf8_g8l748EG_-C_-25" target="0RVPQtY0PKBF0CtTsRn5-67">
          <mxGeometry relative="1" as="geometry" />
        </mxCell>
        <mxCell id="-f9kYf8_g8l748EG_-C_-25" value="Shop" style="rounded=0;whiteSpace=wrap;html=1;strokeWidth=2;strokeColor=#3396dd;fontFamily=Verdana;fontSize=17;fontColor=#4B4B4B;" parent="1" vertex="1">
          <mxGeometry x="545" y="120" width="120" height="60" as="geometry" />
        </mxCell>
        <mxCell id="-f9kYf8_g8l748EG_-C_-28" value="" style="edgeStyle=orthogonalEdgeStyle;shape=connector;rounded=0;orthogonalLoop=1;jettySize=auto;html=1;labelBackgroundColor=default;strokeColor=default;align=center;verticalAlign=middle;fontFamily=Helvetica;fontSize=11;fontColor=default;endArrow=none;endFill=0;" parent="1" source="-f9kYf8_g8l748EG_-C_-26" target="-f9kYf8_g8l748EG_-C_-5" edge="1">
          <mxGeometry relative="1" as="geometry" />
        </mxCell>
        <mxCell id="0RVPQtY0PKBF0CtTsRn5-3" value="1, n" style="edgeLabel;html=1;align=center;verticalAlign=middle;resizable=0;points=[];" vertex="1" connectable="0" parent="-f9kYf8_g8l748EG_-C_-28">
          <mxGeometry x="0.6319" y="2" relative="1" as="geometry">
            <mxPoint as="offset" />
          </mxGeometry>
        </mxCell>
        <mxCell id="-f9kYf8_g8l748EG_-C_-26" value="È suddiviso in" style="rhombus;whiteSpace=wrap;html=1;strokeWidth=2;strokeColor=#24afaf;fontFamily=Verdana;fontSize=17;fontColor=#4B4B4B;" parent="1" vertex="1">
          <mxGeometry x="545" y="230" width="120" height="60" as="geometry" />
        </mxCell>
        <mxCell id="-f9kYf8_g8l748EG_-C_-30" value="appuntamento_fissato&lt;br&gt;commento_cliente&lt;br&gt;data_creazione&lt;br&gt;ispezione_completata&lt;br&gt;titolo&lt;br&gt;autorizzato&lt;br&gt;raccomandazione" style="text;html=1;align=center;verticalAlign=middle;resizable=0;points=[];autosize=1;strokeColor=none;fillColor=none;fontSize=11;fontFamily=Helvetica;fontColor=default;" parent="1" vertex="1">
          <mxGeometry x="415" y="410" width="130" height="110" as="geometry" />
        </mxCell>
        <mxCell id="-f9kYf8_g8l748EG_-C_-32" value="modello&lt;br&gt;marca&lt;br&gt;anno_costruzione&lt;br&gt;targa&lt;br&gt;num_telaio" style="text;html=1;align=center;verticalAlign=middle;resizable=0;points=[];autosize=1;strokeColor=none;fillColor=none;fontSize=11;fontFamily=Helvetica;fontColor=default;" parent="1" vertex="1">
          <mxGeometry x="550" y="940" width="110" height="80" as="geometry" />
        </mxCell>
        <mxCell id="-f9kYf8_g8l748EG_-C_-34" value="id_cliente&lt;br&gt;telefono&lt;br&gt;nome&lt;br&gt;cognome&lt;br&gt;email" style="text;html=1;align=center;verticalAlign=middle;resizable=0;points=[];autosize=1;strokeColor=none;fillColor=none;fontSize=11;fontFamily=Helvetica;fontColor=default;" parent="1" vertex="1">
          <mxGeometry x="745" y="280" width="70" height="80" as="geometry" />
        </mxCell>
        <mxCell id="-f9kYf8_g8l748EG_-C_-38" style="edgeStyle=orthogonalEdgeStyle;shape=connector;rounded=0;orthogonalLoop=1;jettySize=auto;html=1;labelBackgroundColor=default;strokeColor=default;align=center;verticalAlign=middle;fontFamily=Helvetica;fontSize=11;fontColor=default;endArrow=none;endFill=0;entryX=0.5;entryY=0;entryDx=0;entryDy=0;" parent="1" source="-f9kYf8_g8l748EG_-C_-36" target="0RVPQtY0PKBF0CtTsRn5-55" edge="1">
          <mxGeometry relative="1" as="geometry" />
        </mxCell>
        <mxCell id="0RVPQtY0PKBF0CtTsRn5-20" value="0, n" style="edgeLabel;html=1;align=center;verticalAlign=middle;resizable=0;points=[];" vertex="1" connectable="0" parent="-f9kYf8_g8l748EG_-C_-38">
          <mxGeometry x="0.8545" y="2" relative="1" as="geometry">
            <mxPoint x="-2" y="-16" as="offset" />
          </mxGeometry>
        </mxCell>
        <mxCell id="-f9kYf8_g8l748EG_-C_-36" value="Contiene" style="rhombus;whiteSpace=wrap;html=1;strokeWidth=2;strokeColor=#24afaf;fontFamily=Verdana;fontSize=17;fontColor=#4B4B4B;" parent="1" vertex="1">
          <mxGeometry x="690" y="610" width="120" height="60" as="geometry" />
        </mxCell>
        <mxCell id="-f9kYf8_g8l748EG_-C_-39" value="creatore&lt;br&gt;testo" style="text;html=1;align=center;verticalAlign=middle;resizable=0;points=[];autosize=1;strokeColor=none;fillColor=none;fontSize=11;fontFamily=Helvetica;fontColor=default;" parent="1" vertex="1">
          <mxGeometry x="720" y="870" width="60" height="40" as="geometry" />
        </mxCell>
        <mxCell id="-f9kYf8_g8l748EG_-C_-47" value="" style="edgeStyle=orthogonalEdgeStyle;shape=connector;rounded=0;orthogonalLoop=1;jettySize=auto;html=1;labelBackgroundColor=default;strokeColor=default;align=center;verticalAlign=middle;fontFamily=Helvetica;fontSize=11;fontColor=default;endArrow=none;endFill=0;" parent="1" source="-f9kYf8_g8l748EG_-C_-41" target="-f9kYf8_g8l748EG_-C_-45" edge="1">
          <mxGeometry relative="1" as="geometry" />
        </mxCell>
        <mxCell id="0RVPQtY0PKBF0CtTsRn5-31" value="1, 1" style="edgeLabel;html=1;align=center;verticalAlign=middle;resizable=0;points=[];" vertex="1" connectable="0" parent="-f9kYf8_g8l748EG_-C_-47">
          <mxGeometry x="-0.487" y="1" relative="1" as="geometry">
            <mxPoint as="offset" />
          </mxGeometry>
        </mxCell>
        <mxCell id="-f9kYf8_g8l748EG_-C_-50" style="edgeStyle=orthogonalEdgeStyle;shape=connector;rounded=0;orthogonalLoop=1;jettySize=auto;html=1;labelBackgroundColor=default;strokeColor=default;align=center;verticalAlign=middle;fontFamily=Helvetica;fontSize=11;fontColor=default;endArrow=none;endFill=0;" parent="1" source="-f9kYf8_g8l748EG_-C_-41" target="-f9kYf8_g8l748EG_-C_-49" edge="1">
          <mxGeometry relative="1" as="geometry" />
        </mxCell>
        <mxCell id="-f9kYf8_g8l748EG_-C_-41" value="Ispezione" style="rounded=0;whiteSpace=wrap;html=1;strokeWidth=2;strokeColor=#3396dd;fontFamily=Verdana;fontSize=17;fontColor=#4B4B4B;" parent="1" vertex="1">
          <mxGeometry x="400" y="810" width="120" height="60" as="geometry" />
        </mxCell>
        <mxCell id="-f9kYf8_g8l748EG_-C_-44" style="edgeStyle=orthogonalEdgeStyle;shape=connector;rounded=0;orthogonalLoop=1;jettySize=auto;html=1;entryX=0.5;entryY=0;entryDx=0;entryDy=0;labelBackgroundColor=default;strokeColor=default;align=center;verticalAlign=middle;fontFamily=Helvetica;fontSize=11;fontColor=default;endArrow=none;endFill=0;" parent="1" source="-f9kYf8_g8l748EG_-C_-42" target="-f9kYf8_g8l748EG_-C_-41" edge="1">
          <mxGeometry relative="1" as="geometry" />
        </mxCell>
        <mxCell id="0RVPQtY0PKBF0CtTsRn5-26" value="0, n" style="edgeLabel;html=1;align=center;verticalAlign=middle;resizable=0;points=[];" vertex="1" connectable="0" parent="-f9kYf8_g8l748EG_-C_-44">
          <mxGeometry x="0.2065" relative="1" as="geometry">
            <mxPoint as="offset" />
          </mxGeometry>
        </mxCell>
        <mxCell id="-f9kYf8_g8l748EG_-C_-42" value="Contiene" style="rhombus;whiteSpace=wrap;html=1;strokeWidth=2;strokeColor=#24afaf;fontFamily=Verdana;fontSize=17;fontColor=#4B4B4B;" parent="1" vertex="1">
          <mxGeometry x="400" y="710" width="120" height="60" as="geometry" />
        </mxCell>
        <mxCell id="-f9kYf8_g8l748EG_-C_-48" value="" style="edgeStyle=orthogonalEdgeStyle;shape=connector;rounded=0;orthogonalLoop=1;jettySize=auto;html=1;labelBackgroundColor=default;strokeColor=default;align=center;verticalAlign=middle;fontFamily=Helvetica;fontSize=11;fontColor=default;endArrow=none;endFill=0;" parent="1" source="-f9kYf8_g8l748EG_-C_-45" target="-f9kYf8_g8l748EG_-C_-46" edge="1">
          <mxGeometry relative="1" as="geometry" />
        </mxCell>
        <mxCell id="0RVPQtY0PKBF0CtTsRn5-49" value="0, n" style="edgeLabel;html=1;align=center;verticalAlign=middle;resizable=0;points=[];" vertex="1" connectable="0" parent="-f9kYf8_g8l748EG_-C_-48">
          <mxGeometry x="0.5371" y="-1" relative="1" as="geometry">
            <mxPoint as="offset" />
          </mxGeometry>
        </mxCell>
        <mxCell id="-f9kYf8_g8l748EG_-C_-45" value="Contiene" style="rhombus;whiteSpace=wrap;html=1;strokeWidth=2;strokeColor=#24afaf;fontFamily=Verdana;fontSize=17;fontColor=#4B4B4B;" parent="1" vertex="1">
          <mxGeometry x="400" y="920" width="120" height="60" as="geometry" />
        </mxCell>
        <mxCell id="-f9kYf8_g8l748EG_-C_-46" value="Job" style="rounded=0;whiteSpace=wrap;html=1;strokeWidth=2;strokeColor=#3396dd;fontFamily=Verdana;fontSize=17;fontColor=#4B4B4B;" parent="1" vertex="1">
          <mxGeometry x="400" y="1030" width="120" height="60" as="geometry" />
        </mxCell>
        <mxCell id="-f9kYf8_g8l748EG_-C_-49" value="nome" style="text;html=1;align=center;verticalAlign=middle;resizable=0;points=[];autosize=1;strokeColor=none;fillColor=none;fontSize=11;fontFamily=Helvetica;fontColor=default;" parent="1" vertex="1">
          <mxGeometry x="320" y="825" width="50" height="30" as="geometry" />
        </mxCell>
        <mxCell id="-f9kYf8_g8l748EG_-C_-52" value="" style="edgeStyle=orthogonalEdgeStyle;shape=connector;rounded=0;orthogonalLoop=1;jettySize=auto;html=1;labelBackgroundColor=default;strokeColor=default;align=center;verticalAlign=middle;fontFamily=Helvetica;fontSize=11;fontColor=default;endArrow=none;endFill=0;" parent="1" source="-f9kYf8_g8l748EG_-C_-51" target="-f9kYf8_g8l748EG_-C_-46" edge="1">
          <mxGeometry relative="1" as="geometry" />
        </mxCell>
        <mxCell id="-f9kYf8_g8l748EG_-C_-51" value="nome&lt;br&gt;stato_pezzo&lt;br&gt;completato" style="text;html=1;align=center;verticalAlign=middle;resizable=0;points=[];autosize=1;strokeColor=none;fillColor=none;fontSize=11;fontFamily=Helvetica;fontColor=default;" parent="1" vertex="1">
          <mxGeometry x="280" y="1035" width="80" height="50" as="geometry" />
        </mxCell>
        <mxCell id="XMlzGlEQkST-gz8FGXZO-5" style="edgeStyle=orthogonalEdgeStyle;rounded=0;orthogonalLoop=1;jettySize=auto;html=1;exitX=1;exitY=0.5;exitDx=0;exitDy=0;entryX=0.25;entryY=1;entryDx=0;entryDy=0;endArrow=none;endFill=0;" parent="1" source="XMlzGlEQkST-gz8FGXZO-4" target="-f9kYf8_g8l748EG_-C_-25" edge="1">
          <mxGeometry relative="1" as="geometry">
            <Array as="points">
              <mxPoint x="440" y="340" />
              <mxPoint x="440" y="220" />
              <mxPoint x="575" y="220" />
            </Array>
            <mxPoint x="440" y="310" as="sourcePoint" />
          </mxGeometry>
        </mxCell>
        <mxCell id="0RVPQtY0PKBF0CtTsRn5-43" value="1, 1" style="edgeLabel;html=1;align=center;verticalAlign=middle;resizable=0;points=[];" vertex="1" connectable="0" parent="XMlzGlEQkST-gz8FGXZO-5">
          <mxGeometry x="0.8679" y="-2" relative="1" as="geometry">
            <mxPoint as="offset" />
          </mxGeometry>
        </mxCell>
        <mxCell id="XMlzGlEQkST-gz8FGXZO-6" style="edgeStyle=orthogonalEdgeStyle;shape=connector;rounded=0;orthogonalLoop=1;jettySize=auto;html=1;exitX=1;exitY=0.5;exitDx=0;exitDy=0;entryX=0;entryY=0.5;entryDx=0;entryDy=0;labelBackgroundColor=default;strokeColor=default;align=center;verticalAlign=middle;fontFamily=Helvetica;fontSize=11;fontColor=default;endArrow=none;endFill=0;" parent="1" edge="1">
          <mxGeometry relative="1" as="geometry">
            <mxPoint x="200" y="180" as="targetPoint" />
          </mxGeometry>
        </mxCell>
        <mxCell id="0RVPQtY0PKBF0CtTsRn5-44" value="1, 1" style="edgeLabel;html=1;align=center;verticalAlign=middle;resizable=0;points=[];" vertex="1" connectable="0" parent="XMlzGlEQkST-gz8FGXZO-6">
          <mxGeometry x="-0.42" y="4" relative="1" as="geometry">
            <mxPoint x="-1" as="offset" />
          </mxGeometry>
        </mxCell>
        <mxCell id="XMlzGlEQkST-gz8FGXZO-8" style="edgeStyle=orthogonalEdgeStyle;shape=connector;rounded=0;orthogonalLoop=1;jettySize=auto;html=1;exitX=1;exitY=0.5;exitDx=0;exitDy=0;entryX=0;entryY=0.5;entryDx=0;entryDy=0;labelBackgroundColor=default;strokeColor=default;align=center;verticalAlign=middle;fontFamily=Helvetica;fontSize=11;fontColor=default;endArrow=none;endFill=0;" parent="1" source="XMlzGlEQkST-gz8FGXZO-3" target="XMlzGlEQkST-gz8FGXZO-4" edge="1">
          <mxGeometry relative="1" as="geometry" />
        </mxCell>
        <mxCell id="0RVPQtY0PKBF0CtTsRn5-41" value="0, n" style="edgeLabel;html=1;align=center;verticalAlign=middle;resizable=0;points=[];" vertex="1" connectable="0" parent="XMlzGlEQkST-gz8FGXZO-8">
          <mxGeometry x="-0.475" y="-2" relative="1" as="geometry">
            <mxPoint x="-1" y="1" as="offset" />
          </mxGeometry>
        </mxCell>
        <mxCell id="XMlzGlEQkST-gz8FGXZO-10" style="edgeStyle=orthogonalEdgeStyle;shape=connector;rounded=0;orthogonalLoop=1;jettySize=auto;html=1;exitX=1;exitY=0.25;exitDx=0;exitDy=0;labelBackgroundColor=default;strokeColor=default;align=center;verticalAlign=middle;fontFamily=Helvetica;fontSize=11;fontColor=default;endArrow=none;endFill=0;" parent="1" source="XMlzGlEQkST-gz8FGXZO-3" target="XMlzGlEQkST-gz8FGXZO-9" edge="1">
          <mxGeometry relative="1" as="geometry" />
        </mxCell>
        <mxCell id="JbVRSTFgAdsVxS4TJH8S-2" style="edgeStyle=orthogonalEdgeStyle;rounded=0;orthogonalLoop=1;jettySize=auto;html=1;exitX=0.5;exitY=1;exitDx=0;exitDy=0;entryX=0.5;entryY=0;entryDx=0;entryDy=0;endArrow=none;endFill=0;" parent="1" source="XMlzGlEQkST-gz8FGXZO-3" target="JbVRSTFgAdsVxS4TJH8S-1" edge="1">
          <mxGeometry relative="1" as="geometry" />
        </mxCell>
        <mxCell id="0RVPQtY0PKBF0CtTsRn5-54" value=",0 n" style="edgeLabel;html=1;align=center;verticalAlign=middle;resizable=0;points=[];" vertex="1" connectable="0" parent="JbVRSTFgAdsVxS4TJH8S-2">
          <mxGeometry x="-0.625" y="2" relative="1" as="geometry">
            <mxPoint as="offset" />
          </mxGeometry>
        </mxCell>
        <mxCell id="XMlzGlEQkST-gz8FGXZO-3" value="Parte" style="rounded=0;whiteSpace=wrap;html=1;strokeWidth=2;strokeColor=#3396dd;fontFamily=Verdana;fontSize=17;fontColor=#4B4B4B;" parent="1" vertex="1">
          <mxGeometry x="40" y="310" width="120" height="60" as="geometry" />
        </mxCell>
        <mxCell id="XMlzGlEQkST-gz8FGXZO-4" value="Contiene in magazzino" style="rhombus;whiteSpace=wrap;html=1;strokeWidth=2;strokeColor=#24afaf;fontFamily=Verdana;fontSize=17;fontColor=#4B4B4B;" parent="1" vertex="1">
          <mxGeometry x="225" y="310" width="120" height="60" as="geometry" />
        </mxCell>
        <mxCell id="XMlzGlEQkST-gz8FGXZO-9" value="nome&lt;br&gt;stato&lt;br&gt;id_parte&lt;br&gt;descrizione" style="text;html=1;align=center;verticalAlign=middle;resizable=0;points=[];autosize=1;strokeColor=none;fillColor=none;fontSize=11;fontFamily=Helvetica;fontColor=default;" parent="1" vertex="1">
          <mxGeometry x="190" y="210" width="80" height="70" as="geometry" />
        </mxCell>
        <mxCell id="XMlzGlEQkST-gz8FGXZO-14" style="edgeStyle=orthogonalEdgeStyle;shape=connector;rounded=0;orthogonalLoop=1;jettySize=auto;html=1;exitX=1;exitY=0.5;exitDx=0;exitDy=0;entryX=0;entryY=0.5;entryDx=0;entryDy=0;labelBackgroundColor=default;strokeColor=default;align=center;verticalAlign=middle;fontFamily=Helvetica;fontSize=11;fontColor=default;endArrow=none;endFill=0;" parent="1" source="XMlzGlEQkST-gz8FGXZO-15" target="-f9kYf8_g8l748EG_-C_-25" edge="1">
          <mxGeometry relative="1" as="geometry" />
        </mxCell>
        <mxCell id="0RVPQtY0PKBF0CtTsRn5-47" value="1, 1" style="edgeLabel;html=1;align=center;verticalAlign=middle;resizable=0;points=[];" vertex="1" connectable="0" parent="XMlzGlEQkST-gz8FGXZO-14">
          <mxGeometry x="0.55" y="-5" relative="1" as="geometry">
            <mxPoint x="-1" as="offset" />
          </mxGeometry>
        </mxCell>
        <mxCell id="XMlzGlEQkST-gz8FGXZO-16" style="edgeStyle=orthogonalEdgeStyle;shape=connector;rounded=0;orthogonalLoop=1;jettySize=auto;html=1;exitX=1;exitY=0.5;exitDx=0;exitDy=0;entryX=0;entryY=0.5;entryDx=0;entryDy=0;labelBackgroundColor=default;strokeColor=default;align=center;verticalAlign=middle;fontFamily=Helvetica;fontSize=11;fontColor=default;endArrow=none;endFill=0;" parent="1" source="XMlzGlEQkST-gz8FGXZO-11" target="XMlzGlEQkST-gz8FGXZO-15" edge="1">
          <mxGeometry relative="1" as="geometry" />
        </mxCell>
        <mxCell id="0RVPQtY0PKBF0CtTsRn5-46" value="0, n" style="edgeLabel;html=1;align=center;verticalAlign=middle;resizable=0;points=[];" vertex="1" connectable="0" parent="XMlzGlEQkST-gz8FGXZO-16">
          <mxGeometry x="-0.225" y="-1" relative="1" as="geometry">
            <mxPoint x="-1" as="offset" />
          </mxGeometry>
        </mxCell>
        <mxCell id="XMlzGlEQkST-gz8FGXZO-11" value="Template&lt;br&gt;Ispezione" style="rounded=0;whiteSpace=wrap;html=1;strokeWidth=2;strokeColor=#3396dd;fontFamily=Verdana;fontSize=17;fontColor=#4B4B4B;" parent="1" vertex="1">
          <mxGeometry x="215" y="120" width="120" height="60" as="geometry" />
        </mxCell>
        <mxCell id="XMlzGlEQkST-gz8FGXZO-12" value="nome" style="text;html=1;align=center;verticalAlign=middle;resizable=0;points=[];autosize=1;strokeColor=none;fillColor=none;fontSize=11;fontFamily=Helvetica;fontColor=default;" parent="1" vertex="1">
          <mxGeometry x="250" y="50" width="50" height="30" as="geometry" />
        </mxCell>
        <mxCell id="XMlzGlEQkST-gz8FGXZO-13" style="edgeStyle=orthogonalEdgeStyle;shape=connector;rounded=0;orthogonalLoop=1;jettySize=auto;html=1;exitX=0.5;exitY=0;exitDx=0;exitDy=0;entryX=0.467;entryY=1.178;entryDx=0;entryDy=0;entryPerimeter=0;labelBackgroundColor=default;strokeColor=default;align=center;verticalAlign=middle;fontFamily=Helvetica;fontSize=11;fontColor=default;endArrow=none;endFill=0;" parent="1" source="XMlzGlEQkST-gz8FGXZO-11" target="XMlzGlEQkST-gz8FGXZO-12" edge="1">
          <mxGeometry relative="1" as="geometry" />
        </mxCell>
        <mxCell id="XMlzGlEQkST-gz8FGXZO-15" value="Contiene" style="rhombus;whiteSpace=wrap;html=1;strokeWidth=2;strokeColor=#24afaf;fontFamily=Verdana;fontSize=17;fontColor=#4B4B4B;" parent="1" vertex="1">
          <mxGeometry x="395" y="120" width="120" height="60" as="geometry" />
        </mxCell>
        <mxCell id="XMlzGlEQkST-gz8FGXZO-18" style="edgeStyle=orthogonalEdgeStyle;shape=connector;rounded=0;orthogonalLoop=1;jettySize=auto;html=1;exitX=1;exitY=0.5;exitDx=0;exitDy=0;entryX=0;entryY=0.5;entryDx=0;entryDy=0;labelBackgroundColor=default;strokeColor=default;align=center;verticalAlign=middle;fontFamily=Helvetica;fontSize=11;fontColor=default;endArrow=none;endFill=0;" parent="1" source="XMlzGlEQkST-gz8FGXZO-17" target="XMlzGlEQkST-gz8FGXZO-11" edge="1">
          <mxGeometry relative="1" as="geometry" />
        </mxCell>
        <mxCell id="0RVPQtY0PKBF0CtTsRn5-52" value="0, n" style="edgeLabel;html=1;align=center;verticalAlign=middle;resizable=0;points=[];" vertex="1" connectable="0" parent="XMlzGlEQkST-gz8FGXZO-18">
          <mxGeometry x="0.4143" y="3" relative="1" as="geometry">
            <mxPoint x="-1" y="1" as="offset" />
          </mxGeometry>
        </mxCell>
        <mxCell id="0RVPQtY0PKBF0CtTsRn5-71" style="edgeStyle=orthogonalEdgeStyle;rounded=0;orthogonalLoop=1;jettySize=auto;html=1;exitX=0.5;exitY=0;exitDx=0;exitDy=0;entryX=0.5;entryY=1;entryDx=0;entryDy=0;endArrow=none;endFill=0;" edge="1" parent="1" source="XMlzGlEQkST-gz8FGXZO-17" target="XMlzGlEQkST-gz8FGXZO-19">
          <mxGeometry relative="1" as="geometry" />
        </mxCell>
        <mxCell id="0RVPQtY0PKBF0CtTsRn5-72" value="0, n" style="edgeLabel;html=1;align=center;verticalAlign=middle;resizable=0;points=[];" vertex="1" connectable="0" parent="0RVPQtY0PKBF0CtTsRn5-71">
          <mxGeometry x="0.5909" y="-1" relative="1" as="geometry">
            <mxPoint as="offset" />
          </mxGeometry>
        </mxCell>
        <mxCell id="XMlzGlEQkST-gz8FGXZO-17" value="Composto da" style="rhombus;whiteSpace=wrap;html=1;strokeWidth=2;strokeColor=#24afaf;fontFamily=Verdana;fontSize=17;fontColor=#4B4B4B;" parent="1" vertex="1">
          <mxGeometry x="50" y="240" width="120" height="60" as="geometry" />
        </mxCell>
        <mxCell id="XMlzGlEQkST-gz8FGXZO-19" value="TemplateJob" style="rounded=0;whiteSpace=wrap;html=1;strokeWidth=2;strokeColor=#3396dd;fontFamily=Verdana;fontSize=17;fontColor=#4B4B4B;" parent="1" vertex="1">
          <mxGeometry x="50" y="120" width="120" height="60" as="geometry" />
        </mxCell>
        <mxCell id="XMlzGlEQkST-gz8FGXZO-21" value="nome" style="text;html=1;align=center;verticalAlign=middle;resizable=0;points=[];autosize=1;strokeColor=none;fillColor=none;fontSize=11;fontFamily=Helvetica;fontColor=default;" parent="1" vertex="1">
          <mxGeometry x="85" y="70" width="50" height="30" as="geometry" />
        </mxCell>
        <mxCell id="XMlzGlEQkST-gz8FGXZO-23" style="edgeStyle=orthogonalEdgeStyle;shape=connector;rounded=0;orthogonalLoop=1;jettySize=auto;html=1;exitX=0.5;exitY=0;exitDx=0;exitDy=0;labelBackgroundColor=default;strokeColor=default;align=center;verticalAlign=middle;fontFamily=Helvetica;fontSize=11;fontColor=default;endArrow=none;endFill=0;" parent="1" source="XMlzGlEQkST-gz8FGXZO-19" target="XMlzGlEQkST-gz8FGXZO-21" edge="1">
          <mxGeometry relative="1" as="geometry" />
        </mxCell>
        <mxCell id="Grk35q4gSgS68jNmNNRj-8" style="rounded=0;orthogonalLoop=1;jettySize=auto;html=1;entryX=0.5;entryY=1;entryDx=0;entryDy=0;exitX=0.5;exitY=0;exitDx=0;exitDy=0;endArrow=none;endFill=0;" parent="1" source="XMlzGlEQkST-gz8FGXZO-24" target="Grk35q4gSgS68jNmNNRj-6" edge="1">
          <mxGeometry relative="1" as="geometry" />
        </mxCell>
        <mxCell id="0RVPQtY0PKBF0CtTsRn5-32" value="0, n" style="edgeLabel;html=1;align=center;verticalAlign=middle;resizable=0;points=[];" vertex="1" connectable="0" parent="Grk35q4gSgS68jNmNNRj-8">
          <mxGeometry x="-0.4583" y="-2" relative="1" as="geometry">
            <mxPoint as="offset" />
          </mxGeometry>
        </mxCell>
        <mxCell id="JbVRSTFgAdsVxS4TJH8S-3" style="edgeStyle=orthogonalEdgeStyle;rounded=0;orthogonalLoop=1;jettySize=auto;html=1;exitX=0;exitY=0.5;exitDx=0;exitDy=0;entryX=0.5;entryY=1;entryDx=0;entryDy=0;endArrow=none;endFill=0;" parent="1" source="XMlzGlEQkST-gz8FGXZO-24" target="JbVRSTFgAdsVxS4TJH8S-1" edge="1">
          <mxGeometry relative="1" as="geometry">
            <Array as="points">
              <mxPoint x="60" y="780" />
            </Array>
          </mxGeometry>
        </mxCell>
        <mxCell id="0RVPQtY0PKBF0CtTsRn5-39" value="1, 1" style="edgeLabel;html=1;align=center;verticalAlign=middle;resizable=0;points=[];" vertex="1" connectable="0" parent="JbVRSTFgAdsVxS4TJH8S-3">
          <mxGeometry x="-0.938" y="-3" relative="1" as="geometry">
            <mxPoint x="-1" y="1" as="offset" />
          </mxGeometry>
        </mxCell>
        <mxCell id="XMlzGlEQkST-gz8FGXZO-24" value="Servizio" style="rounded=0;whiteSpace=wrap;html=1;strokeWidth=2;strokeColor=#3396dd;fontFamily=Verdana;fontSize=17;fontColor=#4B4B4B;" parent="1" vertex="1">
          <mxGeometry x="180" y="750" width="120" height="60" as="geometry" />
        </mxCell>
        <mxCell id="XMlzGlEQkST-gz8FGXZO-25" value="Svolge" style="rhombus;whiteSpace=wrap;html=1;strokeWidth=2;strokeColor=#24afaf;fontFamily=Verdana;fontSize=17;fontColor=#4B4B4B;" parent="1" vertex="1">
          <mxGeometry x="75" y="670" width="120" height="60" as="geometry" />
        </mxCell>
        <mxCell id="XMlzGlEQkST-gz8FGXZO-28" value="&lt;div style=&quot;text-align: left;&quot;&gt;&lt;span style=&quot;background-color: initial;&quot;&gt;nome&lt;/span&gt;&lt;/div&gt;&lt;div style=&quot;text-align: left;&quot;&gt;&lt;span style=&quot;background-color: initial;&quot;&gt;status&lt;/span&gt;&lt;/div&gt;&lt;div style=&quot;text-align: left;&quot;&gt;&lt;span style=&quot;background-color: initial;&quot;&gt;ore_totali&lt;/span&gt;&lt;/div&gt;&lt;div style=&quot;text-align: left;&quot;&gt;&lt;span style=&quot;background-color: initial;&quot;&gt;ore_impiegate&lt;/span&gt;&lt;/div&gt;&lt;div style=&quot;text-align: left;&quot;&gt;&lt;span style=&quot;background-color: initial;&quot;&gt;completato&lt;/span&gt;&lt;/div&gt;" style="text;html=1;align=center;verticalAlign=middle;resizable=0;points=[];autosize=1;strokeColor=none;fillColor=none;fontSize=11;fontFamily=Helvetica;fontColor=default;" parent="1" vertex="1">
          <mxGeometry x="195" y="870" width="90" height="80" as="geometry" />
        </mxCell>
        <mxCell id="Grk35q4gSgS68jNmNNRj-1" value="È creato da" style="rhombus;whiteSpace=wrap;html=1;strokeWidth=2;strokeColor=#24afaf;fontFamily=Verdana;fontSize=17;fontColor=#4B4B4B;" parent="1" vertex="1">
          <mxGeometry x="270" y="500" width="120" height="60" as="geometry" />
        </mxCell>
        <mxCell id="Grk35q4gSgS68jNmNNRj-6" value="Contiene" style="rhombus;whiteSpace=wrap;html=1;strokeWidth=2;strokeColor=#24afaf;fontFamily=Verdana;fontSize=17;fontColor=#4B4B4B;" parent="1" vertex="1">
          <mxGeometry x="180" y="630" width="120" height="60" as="geometry" />
        </mxCell>
        <mxCell id="Grk35q4gSgS68jNmNNRj-9" style="rounded=0;orthogonalLoop=1;jettySize=auto;html=1;entryX=0.5;entryY=-0.038;entryDx=0;entryDy=0;entryPerimeter=0;endArrow=none;endFill=0;" parent="1" source="XMlzGlEQkST-gz8FGXZO-24" target="XMlzGlEQkST-gz8FGXZO-28" edge="1">
          <mxGeometry relative="1" as="geometry" />
        </mxCell>
        <mxCell id="Grk35q4gSgS68jNmNNRj-10" value="" style="shape=connector;rounded=0;orthogonalLoop=1;jettySize=auto;html=1;exitX=1;exitY=0.5;exitDx=0;exitDy=0;entryX=0.25;entryY=0;entryDx=0;entryDy=0;labelBackgroundColor=default;strokeColor=default;align=center;verticalAlign=middle;fontFamily=Helvetica;fontSize=11;fontColor=default;endArrow=none;endFill=0;edgeStyle=orthogonalEdgeStyle;" parent="1" source="XMlzGlEQkST-gz8FGXZO-25" target="XMlzGlEQkST-gz8FGXZO-24" edge="1">
          <mxGeometry relative="1" as="geometry">
            <mxPoint x="-180" y="740" as="sourcePoint" />
            <mxPoint x="420" y="650" as="targetPoint" />
          </mxGeometry>
        </mxCell>
        <mxCell id="0RVPQtY0PKBF0CtTsRn5-36" value="0, n" style="edgeLabel;html=1;align=center;verticalAlign=middle;resizable=0;points=[];" vertex="1" connectable="0" parent="Grk35q4gSgS68jNmNNRj-10">
          <mxGeometry x="0.6667" y="3" relative="1" as="geometry">
            <mxPoint as="offset" />
          </mxGeometry>
        </mxCell>
        <mxCell id="JbVRSTFgAdsVxS4TJH8S-1" value="Fa uso di" style="rhombus;whiteSpace=wrap;html=1;strokeWidth=2;strokeColor=#24afaf;fontFamily=Verdana;fontSize=17;fontColor=#4B4B4B;" parent="1" vertex="1">
          <mxGeometry x="5" y="450" width="120" height="60" as="geometry" />
        </mxCell>
        <mxCell id="0RVPQtY0PKBF0CtTsRn5-15" value="Contiene" style="rhombus;whiteSpace=wrap;html=1;strokeWidth=2;strokeColor=#24afaf;fontFamily=Verdana;fontSize=17;fontColor=#4B4B4B;" vertex="1" parent="1">
          <mxGeometry x="690" y="1030" width="120" height="60" as="geometry" />
        </mxCell>
        <mxCell id="0RVPQtY0PKBF0CtTsRn5-16" style="edgeStyle=orthogonalEdgeStyle;shape=connector;rounded=0;orthogonalLoop=1;jettySize=auto;html=1;entryX=0;entryY=0.5;entryDx=0;entryDy=0;labelBackgroundColor=default;strokeColor=default;align=center;verticalAlign=middle;fontFamily=Helvetica;fontSize=11;fontColor=default;endArrow=none;endFill=0;exitX=1;exitY=0.5;exitDx=0;exitDy=0;" edge="1" parent="1" source="-f9kYf8_g8l748EG_-C_-46" target="0RVPQtY0PKBF0CtTsRn5-15">
          <mxGeometry relative="1" as="geometry">
            <mxPoint x="530" y="1055" as="sourcePoint" />
            <mxPoint x="760" y="700" as="targetPoint" />
            <Array as="points">
              <mxPoint x="690" y="1060" />
            </Array>
          </mxGeometry>
        </mxCell>
        <mxCell id="0RVPQtY0PKBF0CtTsRn5-21" value="1, 1" style="edgeLabel;html=1;align=center;verticalAlign=middle;resizable=0;points=[];" vertex="1" connectable="0" parent="0RVPQtY0PKBF0CtTsRn5-16">
          <mxGeometry x="-0.9652" relative="1" as="geometry">
            <mxPoint x="15" as="offset" />
          </mxGeometry>
        </mxCell>
        <mxCell id="0RVPQtY0PKBF0CtTsRn5-18" style="edgeStyle=orthogonalEdgeStyle;shape=connector;rounded=0;orthogonalLoop=1;jettySize=auto;html=1;entryX=0.5;entryY=1;entryDx=0;entryDy=0;labelBackgroundColor=default;strokeColor=default;align=center;verticalAlign=middle;fontFamily=Helvetica;fontSize=11;fontColor=default;endArrow=none;endFill=0;exitX=0.5;exitY=0;exitDx=0;exitDy=0;" edge="1" parent="1" source="0RVPQtY0PKBF0CtTsRn5-15" target="-f9kYf8_g8l748EG_-C_-13">
          <mxGeometry relative="1" as="geometry">
            <mxPoint x="650" y="1100" as="sourcePoint" />
            <mxPoint x="970" y="720" as="targetPoint" />
            <Array as="points">
              <mxPoint x="750" y="1020" />
              <mxPoint x="750" y="1020" />
            </Array>
          </mxGeometry>
        </mxCell>
        <mxCell id="0RVPQtY0PKBF0CtTsRn5-22" value="0, n" style="edgeLabel;html=1;align=center;verticalAlign=middle;resizable=0;points=[];" vertex="1" connectable="0" parent="0RVPQtY0PKBF0CtTsRn5-18">
          <mxGeometry x="0.7761" relative="1" as="geometry">
            <mxPoint y="11" as="offset" />
          </mxGeometry>
        </mxCell>
        <mxCell id="0RVPQtY0PKBF0CtTsRn5-70" style="edgeStyle=orthogonalEdgeStyle;rounded=0;orthogonalLoop=1;jettySize=auto;html=1;exitX=0.5;exitY=1;exitDx=0;exitDy=0;endArrow=none;endFill=0;" edge="1" parent="1" source="0RVPQtY0PKBF0CtTsRn5-55" target="0RVPQtY0PKBF0CtTsRn5-57">
          <mxGeometry relative="1" as="geometry" />
        </mxCell>
        <mxCell id="0RVPQtY0PKBF0CtTsRn5-55" value="NotaOrdine" style="rounded=0;whiteSpace=wrap;html=1;strokeWidth=2;strokeColor=#3396dd;fontFamily=Verdana;fontSize=17;fontColor=#4B4B4B;" vertex="1" parent="1">
          <mxGeometry x="690" y="710" width="120" height="60" as="geometry" />
        </mxCell>
        <mxCell id="0RVPQtY0PKBF0CtTsRn5-57" value="creatore&lt;br&gt;testo" style="text;html=1;align=center;verticalAlign=middle;resizable=0;points=[];autosize=1;strokeColor=none;fillColor=none;fontSize=11;fontFamily=Helvetica;fontColor=default;" vertex="1" parent="1">
          <mxGeometry x="720" y="785" width="60" height="40" as="geometry" />
        </mxCell>
        <mxCell id="0RVPQtY0PKBF0CtTsRn5-59" value="nome" style="text;html=1;align=center;verticalAlign=middle;resizable=0;points=[];autosize=1;strokeColor=none;fillColor=none;" vertex="1" parent="1">
          <mxGeometry x="465" y="335" width="50" height="30" as="geometry" />
        </mxCell>
        <mxCell id="0RVPQtY0PKBF0CtTsRn5-60" style="edgeStyle=orthogonalEdgeStyle;rounded=0;orthogonalLoop=1;jettySize=auto;html=1;exitX=0;exitY=0.5;exitDx=0;exitDy=0;endArrow=none;endFill=0;" edge="1" parent="1" source="-f9kYf8_g8l748EG_-C_-5">
          <mxGeometry relative="1" as="geometry">
            <mxPoint x="517" y="350" as="targetPoint" />
          </mxGeometry>
        </mxCell>
        <mxCell id="0RVPQtY0PKBF0CtTsRn5-61" value="nome&lt;br&gt;cognome&lt;br&gt;data_nascita&lt;br&gt;email&lt;br&gt;numero_telefono&lt;br&gt;CF" style="text;html=1;align=center;verticalAlign=middle;resizable=0;points=[];autosize=1;strokeColor=none;fillColor=none;" vertex="1" parent="1">
          <mxGeometry x="125" y="380" width="110" height="100" as="geometry" />
        </mxCell>
        <mxCell id="0RVPQtY0PKBF0CtTsRn5-62" style="edgeStyle=orthogonalEdgeStyle;rounded=0;orthogonalLoop=1;jettySize=auto;html=1;exitX=0.5;exitY=0;exitDx=0;exitDy=0;entryX=0.499;entryY=1.071;entryDx=0;entryDy=0;entryPerimeter=0;endArrow=none;endFill=0;" edge="1" parent="1" source="-f9kYf8_g8l748EG_-C_-12" target="0RVPQtY0PKBF0CtTsRn5-61">
          <mxGeometry relative="1" as="geometry" />
        </mxCell>
        <mxCell id="0RVPQtY0PKBF0CtTsRn5-67" value="nome" style="text;html=1;align=center;verticalAlign=middle;resizable=0;points=[];autosize=1;strokeColor=none;fillColor=none;" vertex="1" parent="1">
          <mxGeometry x="580" y="68" width="50" height="30" as="geometry" />
        </mxCell>
      </root>
    </mxGraphModel>
  </diagram>
</mxfile>
